<svg xmlns="http://www.w3.org/2000/svg" viewBox="0 0 165.5 163.99" fill="#fff"><title>Codepen</title><path d="M82.75,164a6,6,0,0,1-3.33-1L2.67,111.81a6,6,0,0,1-2.67-5V57.17a6,6,0,0,1,2.67-5L79.42,1a6,6,0,0,1,6.66,0l76.75,51.17a6,6,0,0,1,2.67,5v49.65a6,6,0,0,1-2.67,5L86.08,163A6,6,0,0,1,82.75,164Zm0-162a4.09,4.09,0,0,0-2.22.67L3.78,53.84A4,4,0,0,0,2,57.17v49.65a4,4,0,0,0,1.78,3.33l76.75,51.16a4,4,0,0,0,4.44,0l76.75-51.16a4,4,0,0,0,1.78-3.33V57.17a4,4,0,0,0-1.78-3.33L85,2.67A4.09,4.09,0,0,0,82.75,2Z"/><polygon points="82.75 110.19 0.45 55.33 1.55 53.66 82.75 107.79 163.94 53.66 165.06 55.33 82.75 110.19"/><polygon points="163.94 110.33 82.75 56.2 1.55 110.33 0.45 108.66 82.75 53.79 165.06 108.66 163.94 110.33"/><rect x="81.75" y="108.99" width="2" height="54.29"/><rect x="81.75" y="1" width="2" height="53.99"/></svg>