<svg xmlns="http://www.w3.org/2000/svg" viewBox="0 0 183.76 93.8" fill="white"><title>CSS</title><path d="M70.53,51.73l.82.55a.66.66,0,0,1,.14,1C53.62,77.44,30.66,93.8,14.57,93.8,5.36,93.8,0,88.17,0,78.27,0,71.39,3.16,62,9.07,51.46,22.69,27.12,48.94-.1,66.68-.1,73-.1,77,3.48,77,9.39c0,12-14.85,28.46-25.85,28.46-3.57,0-5.77-1.65-5.77-4.54,0-2.2,1.51-4,4-5.09a.71.71,0,0,1,1,.42l.27,1a.61.61,0,0,1-.27.82c-1.65.83-2.48,1.79-2.48,2.89,0,1.37,1.1,2.06,3.3,2.06,9.49,0,23.38-15.4,23.38-26,0-4.4-2.89-7-7.84-7C50,2.38,24.61,28.5,11.27,52.56,5.5,63,2.48,71.94,2.48,78.27c0,8.52,4.26,13.06,12.09,13.06,15.26,0,37.54-16,55-39.46A.59.59,0,0,1,70.53,51.73Z"/><path d="M125.29,55.58l.75.5c.25.25.38.63.13.88l-.63.87c-15.86,21.86-21,26.85-28.1,31.1a31.46,31.46,0,0,1-17,4.75C65.21,93.68,55,84.19,55,70c0-13.37,9-24.11,20.61-24.11a20.64,20.64,0,0,1,5.75.75C87.7,37.85,93.94,31,99.06,25a44.39,44.39,0,0,1-.62-6.87c0-8.74,6-18.11,12-18.11,2.5,0,4,1.75,4,4.5,0,2.24-1.13,5.12-3,8.49a107.09,107.09,0,0,1-9.87,12.74c2.25,12.12,8.75,26.48,8.75,37.22a34,34,0,0,1-3.25,15c4-4.37,9-10.87,16.73-21.36l.63-.87C124.67,55.46,125,55.33,125.29,55.58ZM80.45,91.43a28.23,28.23,0,0,0,14-3.37c.63-.38,1.25-.63,1.75-1,7.37-4.87,11.87-13.37,11.87-24.11,0-9.74-5.75-23.23-8.37-35.1-4.87,5.5-10.49,11.74-16.24,19.61a11.45,11.45,0,0,1,6.87,11c0,8.87-7,16.87-14.86,16.87-6.5,0-11.12-4.37-11.12-10.5a15.47,15.47,0,0,1,3-9.61c.25-.25.62-.38.87-.13l.75.5a.61.61,0,0,1,.13.88,14.06,14.06,0,0,0-2.5,8.36c0,4.88,3.62,8.25,8.87,8.25,6.62,0,12.61-7,12.61-14.62,0-6.37-4.74-10.36-12.49-10.36-10.24,0-18.36,9.62-18.36,21.86C57.22,82.81,66.46,91.43,80.45,91.43Zm20.61-68.57a80.32,80.32,0,0,0,8.37-11.12c1.87-3,2.75-5.5,2.75-7.24,0-1.5-.63-2.25-1.75-2.25-4.5,0-9.74,8.37-9.74,15.86A31.67,31.67,0,0,0,101.06,22.86Z"/><path d="M182.75,55.58l.75.5a.62.62,0,0,1,.12.88l-.62.87c-15.86,21.86-21,26.85-28.1,31.1a31.49,31.49,0,0,1-17,4.75c-15.24,0-25.48-9.49-25.48-23.73,0-13.37,9-24.11,20.61-24.11a20.56,20.56,0,0,1,5.74.75C145.15,37.85,151.4,31,156.52,25a44.39,44.39,0,0,1-.62-6.87c0-8.74,6-18.11,12-18.11,2.49,0,4,1.75,4,4.5,0,2.24-1.12,5.12-3,8.49A107.09,107.09,0,0,1,159,25.73c2.25,12.12,8.74,26.48,8.74,37.22a33.81,33.81,0,0,1-3.25,15c4-4.37,9-10.87,16.74-21.36l.63-.87C182.13,55.46,182.5,55.33,182.75,55.58ZM137.91,91.43a28.26,28.26,0,0,0,14-3.37c.62-.38,1.25-.63,1.75-1C161,82.19,165.51,73.69,165.51,63c0-9.74-5.74-23.23-8.36-35.1a253.36,253.36,0,0,0-16.24,19.61,11.45,11.45,0,0,1,6.87,11c0,8.87-7,16.87-14.87,16.87-6.49,0-11.11-4.37-11.11-10.5a15.52,15.52,0,0,1,3-9.61c.25-.25.63-.38.88-.13l.75.5a.61.61,0,0,1,.12.88,14.12,14.12,0,0,0-2.49,8.36c0,4.88,3.62,8.25,8.86,8.25,6.62,0,12.62-7,12.62-14.62,0-6.37-4.75-10.36-12.49-10.36-10.24,0-18.36,9.62-18.36,21.86C114.68,82.81,123.92,91.43,137.91,91.43Zm20.61-68.57a81.13,81.13,0,0,0,8.37-11.12c1.87-3,2.75-5.5,2.75-7.24,0-1.5-.63-2.25-1.75-2.25-4.5,0-9.75,8.37-9.75,15.86A31.72,31.72,0,0,0,158.52,22.86Z"/></svg>