<svg xmlns="http://www.w3.org/2000/svg" viewBox="0 0 179.74 175.31" fill="#fff"><title>GitHub</title><path d="M76,77.58a7.93,7.93,0,1,0,7.92,7.93A7.94,7.94,0,0,0,76,77.58Zm0,14.1a6.17,6.17,0,1,1,6.16-6.17A6.18,6.18,0,0,1,76,91.68Z"/><path d="M76,80.23a5.29,5.29,0,1,0,5.28,5.28A5.3,5.3,0,0,0,76,80.23ZM76,89a3.53,3.53,0,1,1,3.52-3.53A3.54,3.54,0,0,1,76,89Z"/><path d="M76,82.87a2.64,2.64,0,1,0,2.64,2.64A2.64,2.64,0,0,0,76,82.87Zm0,3.52a.88.88,0,1,1,.88-.88A.87.87,0,0,1,76,86.39Z"/><path d="M104.13,77.58a7.93,7.93,0,1,0,7.92,7.93A7.94,7.94,0,0,0,104.13,77.58Zm0,14.1a6.17,6.17,0,1,1,6.16-6.17A6.18,6.18,0,0,1,104.13,91.68Z"/><path d="M104.13,80.23a5.29,5.29,0,1,0,5.28,5.28A5.3,5.3,0,0,0,104.13,80.23Zm0,8.81a3.53,3.53,0,1,1,3.52-3.53A3.54,3.54,0,0,1,104.13,89Z"/><path d="M104.13,82.87a2.64,2.64,0,1,0,2.64,2.64A2.64,2.64,0,0,0,104.13,82.87Zm0,3.52a.88.88,0,0,1,0-1.76.88.88,0,0,1,0,1.76Z"/><path d="M89.87,0A89.88,89.88,0,0,0,61.46,175.15c4.49.83,6.14-2,6.14-4.32,0-2.15-.08-9.23-.12-16.73-25,5.43-30.28-10.61-30.28-10.61-4.09-10.39-10-13.15-10-13.15-8.15-5.58.62-5.46.62-5.46,9,.63,13.77,9.26,13.77,9.26,8,13.74,21,9.77,26.16,7.47.8-5.81,3.13-9.77,5.7-12-20-2.27-40.94-10-40.94-44.41a34.81,34.81,0,0,1,9.26-24.13c-.94-2.26-4-11.4.87-23.78,0,0,7.54-2.41,24.72,9.21a85.36,85.36,0,0,1,45,0c17.15-11.62,24.69-9.21,24.69-9.21,4.89,12.38,1.81,21.52.88,23.78a34.76,34.76,0,0,1,9.25,24.13c0,34.52-21,42.12-41,44.34,3.22,2.79,6.1,8.26,6.1,16.64,0,12-.11,21.71-.11,24.67,0,2.39,1.62,5.19,6.17,4.31A89.88,89.88,0,0,0,89.87,0ZM33.66,128c-.2.45-.9.58-1.54.28s-1-.9-.81-1.35.9-.59,1.55-.28S33.89,127.58,33.66,128ZM38.08,132c-.43.4-1.27.21-1.83-.42a1.37,1.37,0,0,1-.27-1.86c.44-.4,1.26-.22,1.85.41S38.53,131.57,38.08,132Zm3,5.05c-.55.38-1.45,0-2-.78s-.55-1.76,0-2.14,1.44,0,2,.75S41.68,136.62,41.11,137Zm5.13,5.84c-.49.54-1.54.4-2.31-.34s-1-1.76-.51-2.3,1.56-.39,2.33.34S46.77,142.32,46.24,142.86Zm6.63,2c-.22.71-1.23,1-2.24.73s-1.69-1.13-1.48-1.85,1.23-1,2.25-.72S53.08,144.12,52.87,144.83Zm7.55.84c0,.74-.84,1.36-1.91,1.37s-1.95-.58-2-1.31.85-1.35,1.92-1.37S60.42,144.93,60.42,145.67Zm7.41-.28c.12.72-.62,1.46-1.68,1.66s-2-.26-2.14-1,.63-1.49,1.67-1.68S67.69,144.65,67.83,145.39Z"/></svg>