<svg xmlns="http://www.w3.org/2000/svg" viewBox="0 0 180 101.44"><title>Hypnotic Eye</title><path d="M90,0A105.61,105.61,0,0,0,63,3.49,54.58,54.58,0,0,0,45.84,43.23,42.38,42.38,0,0,0,88.17,85.57,32.61,32.61,0,0,0,120.74,53,24.88,24.88,0,0,0,95.89,28.15,18.79,18.79,0,0,0,77.12,46.92a14,14,0,0,0,14,14A10.18,10.18,0,0,0,101.3,50.75h8A18.19,18.19,0,0,1,91.08,68.88a22,22,0,0,1-22-22A26.8,26.8,0,0,1,95.89,20.15,32.89,32.89,0,0,1,128.74,53,40.63,40.63,0,0,1,88.17,93.57,50.39,50.39,0,0,1,37.84,43.23,62.26,62.26,0,0,1,48.33,8.54,104.54,104.54,0,0,0,0,50.72a104.76,104.76,0,0,0,90,50.72,104.76,104.76,0,0,0,90-50.72A104.76,104.76,0,0,0,90,0Z" fill="#fff"/></svg>