<svg xmlns="http://www.w3.org/2000/svg" viewBox="0 0 173.44 154.07" fill="#fff"><title>React</title><path d="M122.45,154.07c-7.21,0-16.17-4.15-26.08-12.21-13.53-11-27.32-28.05-38.83-48S38.17,53.49,35.4,36.26c-2.81-17.55,0-29.74,8-34.33S63.28,1,77.07,12.2c13.54,11,27.33,28.05,38.84,48h0c11.51,19.93,19.37,40.4,22.13,57.63,2.82,17.54,0,29.74-8,34.33A15.05,15.05,0,0,1,122.45,154.07ZM51.12,2a13.29,13.29,0,0,0-6.76,1.7c-7.18,4.15-9.66,15.61-7,32.28,2.73,17,10.5,37.22,21.89,56.94s25,36.57,38.37,47.43c13.09,10.66,24.26,14.24,31.44,10.09,15.14-8.74,8.45-48.76-14.9-89.22C93.89,26.05,67.6,2,51.12,2Z"/><path d="M51,154.07a15.05,15.05,0,0,1-7.63-1.93c-8-4.59-10.77-16.79-8-34.33C38.17,100.58,46,80.11,57.54,60.18l.86.5-.86-.5c11.51-19.93,25.3-37,38.83-48C110.16,1,122.13-2.66,130.08,1.93s10.78,16.78,8,34.33C135.28,53.49,127.42,74,115.91,93.88s-25.3,37-38.84,48C67.17,149.92,58.2,154.07,51,154.07ZM122.33,2C105.85,2,79.56,26,59.27,61.18c-11.39,19.73-19.16,39.95-21.89,56.94-2.68,16.68-.2,28.14,7,32.28s18.35.57,31.45-10.09c13.35-10.86,27-27.7,38.37-47.43,23.35-40.45,30-80.48,14.9-89.22A13.28,13.28,0,0,0,122.33,2Z"/><path d="M86.72,110.73c-23,0-44.67-3.42-61-9.64C9.14,94.75,0,86.21,0,77S9.14,59.31,25.75,53c16.3-6.22,38-9.65,61-9.65s44.67,3.43,61,9.65C164.3,59.31,173.44,67.85,173.44,77s-9.14,17.72-25.75,24.06C131.39,107.31,109.74,110.73,86.72,110.73Zm0-65.4C40,45.33,2,59.55,2,77s38,31.7,84.72,31.7S171.44,94.51,171.44,77,133.44,45.33,86.72,45.33Z"/><path d="M86.53,93.86a17.08,17.08,0,1,1,17.08-17.07A17.09,17.09,0,0,1,86.53,93.86Zm0-32.15a15.08,15.08,0,1,0,15.08,15.08A15.1,15.1,0,0,0,86.53,61.71Z"/></svg>