<svg xmlns="http://www.w3.org/2000/svg" viewBox="0 0 323.35 98.62" fill="#fff"><title>Ľuboš Belák</title><path class="cls-1" d="M45.63,71.38c-8.24-1-16.89.53-24.49,3.06l-2.86,1a60.79,60.79,0,0,1,2.64-17.1C24.41,52.7,28.21,46.15,31.8,39.6c10-18,19-36.63,17.63-37.79-.63-.53-1.59-.32-2.64.84L46.47,3c-6.54,6.76-16.78,24.18-23.54,41.6A125.53,125.53,0,0,0,18.5,58c-5,8.34-8.77,14-9.61,13.73-.32-.11,1-4.43,5-15.1A1.15,1.15,0,0,0,13.22,55a1.26,1.26,0,0,0-1.59.74C7.09,68,6.35,73.39,8,74c1.38.53,4.75-3.48,9-9.71a49.15,49.15,0,0,0-1.06,12C7.09,80.25.55,85.11,0,87.32A1.26,1.26,0,0,0,1,88.8a1.27,1.27,0,0,0,1.48-1c.31-1.69,5.91-5.49,13.83-8.87.53,3.59,1.69,6.55,3.9,8.77l.22.1a1.1,1.1,0,0,0,1.69,0,1.29,1.29,0,0,0,0-1.69L21.87,86C20,84.05,18.92,81.31,18.5,78L22,76.77c7.28-2.43,15.52-4,23.33-3a1.2,1.2,0,0,0,1.37-1A1.27,1.27,0,0,0,45.63,71.38Zm-20.38-26C31.38,29.47,40.46,13.74,46.79,6.24c-2.53,5.49-9.71,18.79-17.1,32.1C27.89,41.72,26,45,24.2,48.26A29.81,29.81,0,0,1,25.25,45.41Z"/><path class="cls-1" d="M129.66,38.34c.52.74,1.05.84,1.68.21,1.06-.85,6-2.75,8.24-3.17a1.06,1.06,0,0,0,1.27-1.69c-1.27-1-6.44,1.06-9.4,2.43.11-2.32,1.06-5.6-1.06-6.65-1.37-.63-2.21.84-1,1.79C129.76,31.48,129,36.75,129.66,38.34Z"/><path class="cls-1" d="M146.34,48.68A44.05,44.05,0,0,0,141,51.54a76.58,76.58,0,0,0-11.08,8.23v-.11a13.06,13.06,0,0,1-1-1.37c-1.37-2.15-3.37-5.12-3.24-8.07a1,1,0,0,0,.12-.94c.57-3,2-4.62,3.43-5.14a3.45,3.45,0,0,1,2.33.11,2.78,2.78,0,0,1,1.37,1.69c.42,1.48-.11,3.59-2.54,6.12a1.44,1.44,0,0,0,0,1.8,1.32,1.32,0,0,0,1.8-.11c3.06-3.27,3.8-6.23,3.17-8.44a4.9,4.9,0,0,0-2.75-3.17,5.5,5.5,0,0,0-4.12-.32c-2.3.84-4.4,3-5.05,7.2-4.19,5-12.71,16.67-14.47,17.19.74-2,3.16-7.08,3.69-9,2.32-7.49,3-14.46.53-17.1-1.37-1.48-2.85-1.27-4.22.11a2.69,2.69,0,0,0-.53.63c-1.69-1.06-3.59-.63-5.6,1a23.49,23.49,0,0,0-5.41,6.63,1.5,1.5,0,0,0-.29.34C92.6,55.55,90,55.65,88,54.49c-.21-.11-.32-.21-.53-.32a13,13,0,0,0-1-3.48c-2.11-3.91-3.69-5-4.64-4.54s-.85,2.75.31,5.17a13.89,13.89,0,0,0,3.06,4.12,18,18,0,0,1-5,14.15,13.4,13.4,0,0,1-4.12,3.06,4.55,4.55,0,0,1-3.27.32c-1-.32-1.79-1.48-2-3.7-.22-3.9,1.68-11.3,4.85-19.74a1.39,1.39,0,0,0,.42-.32C87,35.28,96.83,18.7,100.73,10a22.6,22.6,0,0,0,1.9-5.17c.43-2.53-.31-3.48-2.53-2.43-.95.42-2.43,1.8-4.54,4.33v.11c-6.33,8-13.09,20.37-18.16,32.2-1.41,3.22-2.7,6.41-3.85,9.48l-.26.23C65.69,57,59.14,68.64,54.39,75a13.53,13.53,0,0,1-3.48,3.27,3.17,3.17,0,0,1-.74.43A.89.89,0,0,1,50,78c-.11-2.85,1-7.7,2.74-13,2.64-8.55,6.65-18.27,8.66-23A1.23,1.23,0,0,0,59.14,41,105.22,105.22,0,0,1,48,58.08c-3.17,4-6.65,7.5-9.92,9.08a2.41,2.41,0,0,1-.74.21c-1.48-3.06,5.27-18.26,5.59-19a1.13,1.13,0,0,0-.63-1.59,1.18,1.18,0,0,0-1.59.53v.11c-.31.74-7.49,17-5.59,21,.74,1.37,2,1.9,4,.84,3.59-1.69,7.39-5.38,10.77-9.61,1.37-1.69,2.64-3.37,3.91-5.06-1.27,3.16-2.43,6.54-3.38,9.71-1.8,5.59-3,10.66-2.85,13.93v.11a3,3,0,0,0,.74,1.9c.95,1.16,2.32,1.16,3.9.11a18.18,18.18,0,0,0,4-3.81c4-5.09,9-13.3,15.05-21.32-1.92,6-3,11.12-2.91,14.25v.11c.42,3.17,1.8,5.07,3.8,5.7a6.67,6.67,0,0,0,5.07-.42,16.65,16.65,0,0,0,4.86-3.59A20.41,20.41,0,0,0,87.75,57a5.44,5.44,0,0,0,5.82-.86,59.84,59.84,0,0,0-2.13,5.93c-2.85,9.71-3.06,19.22,3.06,21.12,1.8.52,3.8-.32,5.7-2.22,2.33-2.22,4-4.65,6.23-8.87a8.62,8.62,0,0,0,.85-1.69c4-1.09,11.33-11.56,16.24-17.66a20.27,20.27,0,0,0,3.39,6.89c.32.53.63,1,.85,1.38l.31.42a42.88,42.88,0,0,0-4.33,4.43c-5,5.6-7.81,11.3-5.91,15.52l.32.63c1.69,2.75,3.9,3.59,6.23,3.17a7.86,7.86,0,0,0,3.9-1.9,15.8,15.8,0,0,0,3-3.8,18.84,18.84,0,0,0-.11-17.63,78.83,78.83,0,0,1,11.09-8.23c1.79-1.06,3.59-2,5.17-2.75a1.43,1.43,0,0,0,.53-1.58A1.13,1.13,0,0,0,146.34,48.68ZM79.62,40C84.69,28.31,91.23,16.17,97.46,8.35c1-1.16,1.8-2,2.43-2.64A33.55,33.55,0,0,1,98.52,9c-3.28,7.28-10.67,20.06-19.43,32.2Zm19,39.17c-1.37,1.26-2.53,1.9-3.48,1.58-4.44-1.27-3.91-9.5-1.38-18a67.33,67.33,0,0,1,4.86-11.61c1.9-3.38,3.91-6.13,5.7-7.5A2.76,2.76,0,0,1,107,43a25.7,25.7,0,0,0-1.9,4.12,58.15,58.15,0,0,0-2.75,9.71c-1.16,6.34-1.47,13.41,2,14.26C102.21,75.08,100.73,77.19,98.62,79.2Zm7.07-11a7.09,7.09,0,0,1-1,.43c-1.69-.64-.85-6.44.1-11.41a52.24,52.24,0,0,1,2.54-9.29,33.55,33.55,0,0,1,1.79-3.8c.21-.1.32-.1.53-.21a1.19,1.19,0,0,0,.42-1.26,3.26,3.26,0,0,0,.53-.64c.42-.31.63-.42.84-.21,1.8,1.9,1.06,7.92-1,14.78C109.28,60,107.17,64.84,105.69,68.21Zm23.44,10.14a13,13,0,0,1-2.54,3.17A5.75,5.75,0,0,1,124,82.89c-1.37.21-2.63-.42-3.69-2.11a.54.54,0,0,1-.21-.42c-1.48-3.07,1.16-7.92,5.49-12.88,1.16-1.27,2.43-2.54,3.69-3.8A16.2,16.2,0,0,1,129.13,78.35Z"/><path class="cls-1" d="M279.24,36.33c1.69-1.37,7.29-4.43,10.67-5.07,1.48-.31.74-2.21-.74-2A21,21,0,0,0,278.08,34C276.71,35.17,278,37.07,279.24,36.33Z"/><path class="cls-1" d="M323,47.94c-.74-.31-1.69.43-2.11.85-1.16.74-8.66,12.25-15.2,19.42A16.47,16.47,0,0,1,301.09,72c-.63.31-1.16.31-1.26,0-.42-.74-.42-2.33-.11-4.75a10.08,10.08,0,0,1,1.59-1c3.27-1.9,10.76-9.5,10.55-16.78v-.32c-.74-2.85-2-3.8-3.8-3.38-4.43,1.16-14.57,21-20.06,32.31-1.69,3.27-3.16,6.33-4.22,8.55,2-8.25,6.88-22.49,12.73-36.82a.82.82,0,0,0,.15-.36c.32-.77.63-1.54.95-2.3C308.06,33.59,317.25,18,321.05,9.52A23.31,23.31,0,0,0,323,4.34c.42-2.53-.32-3.48-2.53-2.43-.95.43-2.43,1.8-4.54,4.33v.11C310,13.74,302.57,28.94,296,44.57l-1.59,3.9-.15.38c-6.31,7.17-11.68,16.21-16,20.42a9.83,9.83,0,0,1-3,2.32c-.74.21-1.16-.21-1.27-1-.32-7.18,4.86-18.47,7.81-24.91l1.17-2.64v-.32c0-.1.1-.1.1-.21a1.27,1.27,0,0,0-.63-1.69,1.29,1.29,0,0,0-1.59.63,22.46,22.46,0,0,1-2,3.81,5.45,5.45,0,0,0-1.8-2,7.5,7.5,0,0,0-4-1.27l-1.48.21h-.1c-3.38.95-7.29,4-10.35,7.61a25.72,25.72,0,0,0-3,3.86C251.34,63,245.83,75.05,242.72,81.1c-1.48,2.21-3.7,6-4.12,2.53-.21-5.17,4.33-19.32,10.56-34.42l.1-.1c10.88-13.94,20.7-30.52,24.6-39.17a22.64,22.64,0,0,0,1.9-5.18c.42-2.53-.32-3.48-2.53-2.42-1,.42-2.43,1.79-4.54,4.32l-.11.11c-6.23,7.92-14,23.33-20.37,38.43-.48,1.11-1,2.21-1.4,3.31a1.67,1.67,0,0,0-.18.28c-3.81,4.54-9.82,12.88-14.47,16.58-1.79,1.37-3.59,1.79-4.64,1.37-.22-.11-.32-.21-.53-.32a2.73,2.73,0,0,1-.74-1.48c-.63-2-.21-5.17.84-8.44,6.13-.53,10.46-4,12.25-7.39A7.77,7.77,0,0,0,240.4,46a3.7,3.7,0,0,0-.74-2.85c-.74-1-2.22-1.58-4.12-1.16h-.11a11.25,11.25,0,0,0-5.17,3.7A24.28,24.28,0,0,0,228,48.84c-4,2.54-10.62,6.53-16.29,12.2a13.25,13.25,0,0,0-1.16-2.54,10.22,10.22,0,0,0-5-4.75,50.7,50.7,0,0,0,10.77-8.55c3.69-3.91,6.76-8.76,7.5-14a25.67,25.67,0,0,0,.31-9.29A17.18,17.18,0,0,0,221,14.16a9.27,9.27,0,0,0-5.59-3.8,5.18,5.18,0,0,0-2.53-.11c-8.87.64-16,26.61-21.44,46.46-2.32,8.23-4.32,15.41-5.8,19,.63-6.23,4.33-19.95,8.23-33.89,4.86-17.84,9.82-36,8.55-40.33-.21-1-.63-1.58-1.58-1.48-1.16.11-1.9,2.54-3.06,6-2.43,7.18-6.65,19.85-12.14,24-2.64,2.11-5.81,1.79-9.29-3a1.31,1.31,0,0,0-1.8-.21,1.19,1.19,0,0,0-.21,1.69c4.65,6.23,9,6.33,12.78,3.48,5.91-4.54,10.24-17.1,12.77-24.6-1.16,7.29-4.75,20.59-8.45,33.79-4.64,17-9.18,33.68-8.23,37.79a1.09,1.09,0,0,0,.53.64c1,.84,2.11.42,3.06-1,1.9-2.75,4.22-11.19,7-21.33C199,38.23,206,13.11,213.06,12.68h.21a4.2,4.2,0,0,1,1.58,0,7.82,7.82,0,0,1,4.22,3,14.6,14.6,0,0,1,2.64,6.65,20.41,20.41,0,0,1-.31,8.34v.21c-.64,4.75-3.38,9.08-6.76,12.67a46.44,46.44,0,0,1-13.72,9.93,11.58,11.58,0,0,0-1.48.52,1.34,1.34,0,0,0-.74,1.48,1.32,1.32,0,0,0,1.58.85c.32-.11.85-.32,1.37-.53a5.57,5.57,0,0,1,3,.21,8.44,8.44,0,0,1,3.8,3.69,14.28,14.28,0,0,1,1.27,3.17c-4.86,4.54-9.4,9.29-11.51,13.09-4.22,6.12-6.54,13.2-6.65,17.63a6.2,6.2,0,0,0,.95,3.7A3.16,3.16,0,0,0,196,98.52c2.11-.43,5.07-2.64,9.08-7.29,6.55-8.44,8.55-17.42,7.92-24.49a25.29,25.29,0,0,0-.53-3.06,75.63,75.63,0,0,1,13.28-10.5c-.35.82-.66,1.65-.93,2.47-1.16,3.7-1.69,7.39-1,10a5.25,5.25,0,0,0,1.58,2.53v.11c.32.21.74.42,1.06.64,2,.84,4.54.21,7.07-1.59,3.45-2.38,6.93-6.71,10.09-10.86-4.64,12.14-7.72,22.77-7.55,27.22.31,3.17,2.32,5.07,5.27,3.07,3.7-2.55,7.52-13.93,14.2-25.07a5.17,5.17,0,0,0,.16.68A4.33,4.33,0,0,0,257,64.52l.95.63c2.11.85,5.07-.21,8.23-2.32A58.49,58.49,0,0,0,275,54.49l.63-.74c-2.21,5.7-4.22,12.14-4,17.11V71a4.23,4.23,0,0,0,.95,2.43c1,1,2.22,1.16,3.7.53l.1-.11a14.28,14.28,0,0,0,3.7-2.74c3.17-3.17,7-9.14,11.22-14.76-5.85,15.1-10.19,29-10.91,34.82v.31c.32,1.16.85,1.48,1.8,1.27,1.48-.32,4.43-6.23,7.92-13.51,5.38-10.88,15.2-30.09,18.47-30.94.32-.1.53.32.85,1.48.1,5.7-6.55,12.88-9.4,14.46-.74.53-1.58,1-2.22,1.38a1.28,1.28,0,0,0-.42.84c-.53,3.27-.42,5.38.21,6.65.85,2,2.53,2.11,4.54,1.16A20.78,20.78,0,0,0,307.32,70c6-6.55,13.2-18,15.63-20.06C323.37,49.32,323.58,48.26,323,47.94ZM317.78,7.83a32.62,32.62,0,0,1,2.42-2.64,30,30,0,0,1-1.37,3.27c-2.95,6.65-9.29,17.74-17,28.72C307.32,24.82,313.13,13.74,317.78,7.83Zm-47.19.42A32.31,32.31,0,0,1,273,5.61a32.53,32.53,0,0,1-1.38,3.27c-3.16,7-10,19-18.37,30.62C259,26.83,265.42,14.79,270.59,8.25Zm-67.46,81.4c-3.59,4.22-6,6.12-7.6,6.44a1.08,1.08,0,0,1-1.05-.21,4.31,4.31,0,0,1-.43-2.33c0-4,2.22-10.55,6.13-16.26l.1-.1c1.8-3.38,5.7-7.5,10-11.61.11.52.11,1,.21,1.37C211.16,73.49,209.26,81.83,203.13,89.65Zm28.93-42.34a9.74,9.74,0,0,1,4-2.85c1-.21,1.48-.1,1.69.21a1.18,1.18,0,0,1,.21,1.06,5,5,0,0,1-.74,2.21A12.64,12.64,0,0,1,228,54a28.55,28.55,0,0,1,1.78-3.54.88.88,0,0,0,.14-.23A21.35,21.35,0,0,1,232.06,47.31Zm41.17,5.6a57.73,57.73,0,0,1-8.45,7.91c-2.53,1.69-4.64,2.64-5.91,2.12a2.32,2.32,0,0,1-.85-1.16c-.31-1.06.11-2.65,1-4.44a24.59,24.59,0,0,1,4-5.91c2.85-3.17,6.33-5.91,9.29-6.76a2.13,2.13,0,0,1,.84-.1,3.85,3.85,0,0,1,2.64.74,4,4,0,0,1,1.37,1.9v.63A55.52,55.52,0,0,1,273.23,52.91Z"/></svg>