<svg xmlns="http://www.w3.org/2000/svg" viewBox="0 0 180 168" fill="#fff"><title>Waves</title><path d="M180,28c-13,0-19.71-5.36-25.62-10.1C149.08,13.66,144.5,10,135,10s-14.07,3.66-19.37,7.9C109.71,22.64,103,28,90,28S70.3,22.64,64.38,17.9C59.08,13.66,54.5,10,45,10s-14.07,3.66-19.37,7.9C19.71,22.64,13,28,0,28V18c9.5,0,14.08-3.66,19.38-7.9C25.29,5.36,32,0,45,0S64.71,5.36,70.63,10.1C75.93,14.34,80.51,18,90,18s14.07-3.66,19.37-7.9C115.29,5.36,122,0,135,0s19.71,5.36,25.63,10.1c5.3,4.24,9.87,7.9,19.37,7.9Z"/><path d="M0,.5H17.8A34.14,34.14,0,0,1,0,5Z"/><path d="M72.21.5h35.6A34.17,34.17,0,0,1,90,5,34.14,34.14,0,0,1,72.21.5Z"/><path d="M180,.5V5A34.14,34.14,0,0,1,162.2.5Z"/><path d="M180,48c-13,0-19.71-5.36-25.62-10.1C149.08,33.66,144.5,30,135,30s-14.07,3.66-19.37,7.9C109.71,42.64,103,48,90,48S70.3,42.64,64.38,37.9C59.08,33.66,54.5,30,45,30s-14.07,3.66-19.37,7.9C19.71,42.64,13,48,0,48V38c9.5,0,14.08-3.66,19.38-7.9C25.29,25.36,32,20,45,20s19.71,5.36,25.63,10.1C75.93,34.34,80.51,38,90,38s14.07-3.66,19.37-7.9C115.29,25.36,122,20,135,20s19.71,5.36,25.63,10.1c5.3,4.24,9.87,7.9,19.37,7.9Z"/><path d="M180,68c-13,0-19.71-5.36-25.62-10.1C149.08,53.66,144.5,50,135,50s-14.07,3.66-19.37,7.9C109.71,62.64,103,68,90,68S70.3,62.64,64.38,57.9C59.08,53.66,54.5,50,45,50s-14.07,3.66-19.37,7.9C19.71,62.64,13,68,0,68V58c9.5,0,14.08-3.66,19.38-7.9C25.29,45.36,32,40,45,40s19.71,5.36,25.63,10.1C75.93,54.34,80.51,58,90,58s14.07-3.66,19.37-7.9C115.29,45.36,122,40,135,40s19.71,5.36,25.63,10.1c5.3,4.24,9.87,7.9,19.37,7.9Z"/><path d="M180,88c-13,0-19.71-5.36-25.62-10.1C149.08,73.66,144.5,70,135,70s-14.07,3.66-19.37,7.9C109.71,82.64,103,88,90,88S70.3,82.64,64.38,77.9C59.08,73.66,54.5,70,45,70s-14.07,3.66-19.37,7.9C19.71,82.64,13,88,0,88V78c9.5,0,14.08-3.66,19.38-7.9C25.29,65.36,32,60,45,60s19.71,5.36,25.63,10.1C75.93,74.34,80.51,78,90,78s14.07-3.66,19.37-7.9C115.29,65.36,122,60,135,60s19.71,5.36,25.63,10.1c5.3,4.24,9.87,7.9,19.37,7.9Z"/><path d="M180,108c-13,0-19.71-5.36-25.62-10.1C149.08,93.66,144.5,90,135,90s-14.07,3.66-19.37,7.9C109.71,102.64,103,108,90,108S70.3,102.64,64.38,97.9C59.08,93.66,54.5,90,45,90s-14.07,3.66-19.37,7.9C19.71,102.64,13,108,0,108V98c9.5,0,14.08-3.66,19.38-7.9C25.29,85.36,32,80,45,80s19.71,5.36,25.63,10.1C75.93,94.34,80.51,98,90,98s14.07-3.66,19.37-7.9C115.29,85.36,122,80,135,80s19.71,5.36,25.63,10.1c5.3,4.24,9.87,7.9,19.37,7.9Z"/><path d="M180,128c-13,0-19.71-5.36-25.62-10.1-5.3-4.24-9.88-7.9-19.38-7.9s-14.07,3.66-19.37,7.9C109.71,122.64,103,128,90,128s-19.71-5.36-25.63-10.1C59.08,113.66,54.5,110,45,110s-14.07,3.66-19.37,7.9C19.71,122.64,13,128,0,128V118c9.5,0,14.08-3.66,19.38-7.9C25.29,105.36,32,100,45,100s19.71,5.36,25.63,10.1c5.3,4.24,9.88,7.9,19.38,7.9s14.07-3.66,19.37-7.9C115.29,105.36,122,100,135,100s19.71,5.36,25.63,10.1c5.3,4.24,9.87,7.9,19.37,7.9Z"/><path d="M180,148c-13,0-19.71-5.36-25.62-10.1-5.3-4.24-9.88-7.9-19.38-7.9s-14.07,3.66-19.37,7.9C109.71,142.64,103,148,90,148s-19.71-5.36-25.63-10.1C59.08,133.66,54.5,130,45,130s-14.07,3.66-19.37,7.9C19.71,142.64,13,148,0,148V138c9.5,0,14.08-3.66,19.38-7.9C25.29,125.36,32,120,45,120s19.71,5.36,25.63,10.1c5.3,4.24,9.88,7.9,19.38,7.9s14.07-3.66,19.37-7.9C115.29,125.36,122,120,135,120s19.71,5.36,25.63,10.1c5.3,4.24,9.87,7.9,19.37,7.9Z"/><path d="M180,168c-13,0-19.71-5.36-25.62-10.1-5.3-4.24-9.88-7.9-19.38-7.9s-14.07,3.66-19.37,7.9C109.71,162.64,103,168,90,168s-19.71-5.36-25.63-10.1C59.08,153.66,54.5,150,45,150s-14.07,3.66-19.37,7.9C19.71,162.64,13,168,0,168V158c9.5,0,14.08-3.66,19.38-7.9C25.29,145.36,32,140,45,140s19.71,5.36,25.63,10.1c5.3,4.24,9.88,7.9,19.38,7.9s14.07-3.66,19.37-7.9C115.29,145.36,122,140,135,140s19.71,5.36,25.63,10.1c5.3,4.24,9.87,7.9,19.37,7.9Z"/><path d="M45,163a34,34,0,0,1,19.44,5.5H25.56A34,34,0,0,1,45,163Z"/><path d="M154.44,168.5H115.56A34,34,0,0,1,135,163,34,34,0,0,1,154.44,168.5Z"/></svg>