<svg xmlns="http://www.w3.org/2000/svg" viewBox="0 0 93.8 93.8"><title>wheel</title><path d="M46.9,0A46.9,46.9,0,1,0,93.8,46.9,47,47,0,0,0,46.9,0ZM90.3,37.68c-5.22,8.94-11.62,14.14-19,15.45C61.79,54.8,53,49.68,49.42,47.2c4.24-2,13.79-7.45,17.42-17.37,2.61-7.12,1.71-15.11-2.63-23.78A44.56,44.56,0,0,1,90.3,37.68Zm-29.68-33c5.13,9,6.43,17.15,3.85,24.23C61.16,38,52.35,43,48.42,44.87c.4-4.69.45-15.74-6.41-23.87-4.86-5.75-12.18-8.94-21.8-9.51A44.33,44.33,0,0,1,60.62,4.71ZM17.26,13.92c10.3.06,18,3,22.81,8.72,6.25,7.39,6.21,17.55,5.84,21.92-3.84-2.7-13.26-8.24-23.79-6.39C14.66,39.48,8.2,44.25,2.87,52.34A44.39,44.39,0,0,1,17.26,13.92ZM3.5,56.12c5.22-8.94,11.62-14.14,19-15.45C32,39,40.78,44.11,44.37,46.59,40.11,48.56,30.62,53.94,27,64c-2.6,7.12-1.7,15.1,2.64,23.77A44.56,44.56,0,0,1,3.5,56.12Zm29.68,33c-5.13-9-6.43-17.14-3.85-24.23,3.3-9,12.12-14.08,16.05-15.93-.39,4.7-.45,15.76,6.42,23.88,4.85,5.74,12.18,8.93,21.79,9.5a44.33,44.33,0,0,1-40.41,6.78Zm43.36-9.21c-10.29-.06-18-3-22.81-8.71-6.24-7.39-6.2-17.55-5.84-21.93C51.2,51.57,58.65,56,67.38,56a24.5,24.5,0,0,0,4.3-.37c7.46-1.31,13.92-6.08,19.25-14.17A44.39,44.39,0,0,1,76.54,79.88Z"/></svg>